<?xml version="1.0" encoding="UTF-8"?>
<svg id="Layer_1" data-name="Layer 1" xmlns="http://www.w3.org/2000/svg" viewBox="0 0 70.2 100">
  <defs>
    <style>
      .cls-1 {
        fill: #172553;
      }

      .cls-2 {
        fill: #bd3a5e;
      }

      .cls-3 {
        fill: #93cee8;
      }

      .cls-4 {
        fill: #fedccd;
      }

      .cls-5 {
        fill: #007bff;
      }

      .cls-6 {
        fill: #361853;
      }

      .cls-7 {
        fill: #c44266;
      }

      .cls-8 {
        fill: #c0ccd4;
      }

      .cls-9 {
        fill: #fe838c;
      }

      .cls-10 {
        fill: #fafef1;
      }

      .cls-11 {
        fill: #ff7a6f;
      }

      .cls-12 {
        fill: #fffdfa;
      }

      .cls-13 {
        fill: #1a234b;
      }
    </style>
  </defs>
  <ellipse class="cls-3" cx="35.15" cy="98" rx="22.88" ry="2"/>
  <g>
    <path class="cls-8" d="m41.47,12.91h25.35c1.11,0,2.01.9,2.01,2.01h0c0,1.11-.9,2.01-2.01,2.01h-25.35v-4.03Z"/>
    <path class="cls-6" d="m66.82,17.95h-26.36v-6.04h26.36c1.67,0,3.02,1.35,3.02,3.02s-1.35,3.02-3.02,3.02Zm-24.35-2.01h24.35c.56,0,1.01-.45,1.01-1.01s-.45-1.01-1.01-1.01h-24.35v2.01Z"/>
  </g>
  <g>
    <path class="cls-8" d="m20.54,12.91h5.55v4.03H3.69c-1.11,0-2.01-.9-2.01-2.01h0c0-1.11.9-2.01,2.01-2.01h7.2"/>
    <path class="cls-6" d="m27.1,17.95H3.69c-1.67,0-3.02-1.35-3.02-3.02s1.35-3.02,3.02-3.02h7.2c.56,0,1.01.45,1.01,1.01s-.45,1.01-1.01,1.01H3.69c-.56,0-1.01.45-1.01,1.01s.45,1.01,1.01,1.01h21.4v-2.01h-4.55c-.56,0-1.01-.45-1.01-1.01s.45-1.01,1.01-1.01h6.56v6.04Z"/>
  </g>
  <path class="cls-11" d="m63.74,74.4s.82-7.77.26-15.43c-.34-4.64-2.32-8.49-6.29-10.1l-7.15,5.67,7.41,7.09,3.61,5.23,2.16,7.53Z"/>
  <path class="cls-11" d="m6.14,74.98v-15.55s.26-12.21,9.9-12.21c0,0,2.96-11.05,20.69-9.13,0,0,6.59,1.43,17.88-3.98,0,0-.02,4.6-2.06,7.94-1.2,1.96-4.88,3.3-4.88,3.5"/>
  <g>
    <path class="cls-4" d="m63.86,77.76c0,14.7-9.58,19.07-28.94,19.07s-28.94-4.37-28.94-19.07,12.89-26.62,28.94-26.62,28.94,11.92,28.94,26.62Z"/>
    <path class="cls-6" d="m34.92,97.84c-10.51,0-17.58-1.32-22.26-4.17-5.18-3.15-7.69-8.35-7.69-15.91s3.12-14.35,8.78-19.57c5.64-5.2,13.16-8.06,21.17-8.06s15.53,2.86,21.17,8.06c5.66,5.21,8.78,12.16,8.78,19.57s-2.52,12.76-7.69,15.91c-4.67,2.84-11.75,4.17-22.26,4.17Zm0-45.7c-15.4,0-27.94,11.49-27.94,25.62,0,13.17,7.57,18.07,27.94,18.07s27.94-4.9,27.94-18.07c0-14.13-12.53-25.62-27.94-25.62Z"/>
  </g>
  <path class="cls-9" d="m8.4,85.89c3.34,7.84,12.09,10.1,26.52,10.1s23.99-2.84,26.83-10.9c0,0-5.15,9.35-26.36,9.3-22.26-.04-26.99-8.51-26.99-8.51Z"/>
  <path class="cls-13" d="m35.39,71.29c0,6.78-5.37,12.28-12,12.28s-12-5.5-12-12.28c0-1.1.14-2.17.41-3.18,1.37-5.24,6.04-9.1,11.59-9.1s10.18,3.82,11.57,9.03c.28,1.04.43,2.13.43,3.26Z"/>
  <path class="cls-13" d="m34.92,71.29c0,6.78,5.37,12.28,12,12.28s12-5.5,12-12.28c0-1.1-.14-2.17-.41-3.18-1.37-5.24-6.04-9.1-11.59-9.1-5.52,0-10.18,3.82-11.57,9.03-.28,1.04-.43,2.13-.43,3.26Z"/>
  <path class="cls-12" d="m33.87,71.07c0,5.87-4.76,10.62-10.62,10.62s-10.62-4.76-10.62-10.62c0-.95.13-1.87.36-2.75,1.21-4.53,5.35-7.87,10.26-7.87s9.01,3.31,10.25,7.81c.25.9.38,1.84.38,2.82Z"/>
  <circle class="cls-1" cx="23.24" cy="70.82" r="6.94"/>
  <circle class="cls-10" cx="24.88" cy="67.82" r="2.25"/>
  <circle class="cls-10" cx="26.72" cy="71.64" r="1.12"/>
  <path class="cls-3" d="m23.24,79.46c-9.45,0-10.26-11.14-10.26-11.14-.23.88-.36,1.8-.36,2.75,0,5.87,4.76,10.62,10.62,10.62s10.62-4.76,10.62-10.62c0-.97-.13-1.92-.38-2.82,0,0-1.13,11.2-10.25,11.2Z"/>
  <path class="cls-12" d="m57.72,71.07c0,5.87-4.76,10.62-10.62,10.62s-10.62-4.76-10.62-10.62c0-.95.13-1.87.36-2.75,1.21-4.53,5.35-7.87,10.26-7.87s9.01,3.31,10.25,7.81c.25.9.38,1.84.38,2.82Z"/>
  <circle class="cls-1" cx="47.1" cy="70.82" r="6.94"/>
  <circle class="cls-10" cx="48.73" cy="67.82" r="2.25"/>
  <circle class="cls-10" cx="50.57" cy="71.64" r="1.12"/>
  <path class="cls-3" d="m47.1,79.46c-8.8,0-10.26-11.14-10.26-11.14-.23.88-.36,1.8-.36,2.75,0,5.87,4.76,10.62,10.62,10.62s10.62-4.76,10.62-10.62c0-.97-.13-1.92-.38-2.82,0,0-1.43,11.2-10.25,11.2Z"/>
  <path class="cls-13" d="m35.17,88.44c-3.83,0-4.81-2.97-4.85-3.1-.12-.4.1-.82.49-.95.4-.12.82.09.94.49.03.1.72,2.05,3.41,2.05s3.35-1.96,3.37-2.04c.13-.39.55-.62.94-.49.4.12.62.54.5.93-.32,1.08-1.74,3.11-4.82,3.11Z"/>
  <path class="cls-11" d="m58.4,46.13s-1.8,8.29-14.97,10.3c-5.37.82-14.45.11-20.5-2.91l-1.48-3.57,27.23-3.87c2.49-.35,5.02-.41,7.53-.17l2.2.21Z"/>
  <path class="cls-6" d="m46.92,47.34c-.56,0-1.01-.45-1.01-1.01,0-.73.61-.97,1.1-1.16.99-.39,3.3-1.29,4.67-3.63,1.82-3.1,1.92-7.4,1.92-7.44.01-.56.48-.99,1.02-.99.56,0,1,.47.99,1.02,0,.2-.11,4.87-2.19,8.43-1.73,2.95-4.6,4.07-5.68,4.49-.08.03-.16.06-.21.08-.17.13-.38.21-.61.21Zm1.01-1s0,.06,0,.09c0-.03,0-.06,0-.09Zm0,0h0s0,0,0,0Zm0,0h0s0,0,0,0Zm0,0h0s0,0,0,0Z"/>
  <g>
    <path class="cls-4" d="m64.2,76.29c2.9,0,5.25-2.35,5.25-5.25s-2.35-5.25-5.25-5.25v10.49Z"/>
    <path class="cls-6" d="m64.2,77.05h-.76v-12h.76c3.31,0,6,2.69,6,6s-2.69,6-6,6Zm.76-10.43v8.86c2.12-.36,3.74-2.21,3.74-4.43s-1.62-4.07-3.74-4.43Z"/>
  </g>
  <path class="cls-2" d="m64.95,73.25c1.21,0,2.2-.98,2.2-2.2s-.98-2.2-2.2-2.2"/>
  <g>
    <path class="cls-4" d="m6,76.29c-2.9,0-5.25-2.35-5.25-5.25s2.35-5.25,5.25-5.25v10.49Z"/>
    <path class="cls-6" d="m6.76,77.05h-.76c-3.31,0-6-2.69-6-6s2.69-6,6-6h.76v12Zm-1.51-10.43c-2.12.36-3.74,2.21-3.74,4.43s1.62,4.07,3.74,4.43v-8.86Z"/>
  </g>
  <path class="cls-2" d="m5.25,73.25c-1.21,0-2.2-.98-2.2-2.2s.98-2.2,2.2-2.2"/>
  <g>
    <rect class="cls-5" x="25.5" y="7.42" width="18.93" height="14.31"/>
    <path class="cls-6" d="m42.44,22.74h-14.93c-1.66,0-3.01-1.35-3.01-3.01v-10.31c0-1.66,1.35-3.01,3.01-3.01h14.93c1.66,0,3.01,1.35,3.01,3.01v10.31c0,1.66-1.35,3.01-3.01,3.01Zm-14.93-14.31c-.55,0-.99.45-.99.99v10.31c0,.55.45.99.99.99h14.93c.55,0,.99-.45.99-.99v-10.31c0-.55-.45-.99-.99-.99h-14.93Z"/>
  </g>
  <g>
    <polygon class="cls-2" points="34.97 27.13 34.97 27.13 29.69 22.1 40.25 22.1 34.97 27.13"/>
    <path class="cls-6" d="m34.97,28.17l-7.17-6.83h14.33l-7.17,6.83Zm-3.39-5.32l3.39,3.24,3.39-3.24h-6.79Z"/>
  </g>
  <circle class="cls-1" cx="35.02" cy="15.08" r="1.2"/>
  <path class="cls-1" d="m32.23,19.25c.41-.18.43-1.03.69-1.55s.87-1.02.87-1.02c-1.34-1.26-.45-2.56-.45-2.56,0,0-3.02-.52-3.7,2.31-.2.83.25,1.55.55,1.97.71,1,1.62,1.03,2.03.85Z"/>
  <path class="cls-1" d="m39.87,15.53c-.36-.26-.92.14-1.49.18s-1.38-.2-1.38-.2c-.41,1.8-2.04,1.67-2.04,1.67,0,0,.97,2.82,3.75,1.96.81-.25,1.19-.93,1.39-1.4.5-1.12.13-1.95-.23-2.21Z"/>
  <path class="cls-1" d="m32.82,10.73c-.04.58.57.73.89,1.21s.53,1.39.53,1.39c1.86-.58,2.43.87,2.43.87,0,0,1.98-2.23-.14-4.23-.62-.59-1.4-.58-1.9-.53-1.22.12-1.78.84-1.81,1.29Z"/>
  <path class="cls-7" d="m62.96,57.56l.31,6.2v5.09s-.73-1.96-1.57-3.46-2.22-3.5-2.22-3.5l3.47-4.32Z"/>
  <path class="cls-6" d="m63.74,75.41s-.07,0-.11,0c-.55-.06-.95-.55-.9-1.11,0-.08.81-7.77.26-15.25-.34-4.61-2.35-7.89-5.66-9.24-.52-.21-.76-.8-.55-1.31.21-.52.8-.76,1.31-.55,4.06,1.65,6.52,5.54,6.91,10.95.56,7.66-.26,15.53-.27,15.61-.05.52-.49.9-1,.9Z"/>
  <path class="cls-7" d="m7.11,56.53v6.2s0,5.09,0,5.09c0,0,.95-2.12,1.78-3.62s2.31-3.34,2.31-3.34l-4.1-4.33Z"/>
  <path class="cls-6" d="m6.14,75.99c-.56,0-1.01-.45-1.01-1.01v-15.55c0-.15.08-3.3,1.41-6.49,1.73-4.16,4.75-6.46,8.78-6.7.41-1.02,1.4-2.95,3.45-4.8,2.62-2.37,7.59-5.07,16.32-4.5.23.01.38-.09.45-.16.07-.06.19-.21.19-.43,0-1.44,1.17-2.6,2.6-2.6h3.73c.67,0,1.22-.55,1.22-1.22s-.55-1.22-1.22-1.22h-4.88c-1.78,0-3.23-1.45-3.23-3.23v-.97c0-.56.45-1.01,1.01-1.01s1.01.45,1.01,1.01v.97c0,.67.55,1.22,1.22,1.22h4.88c1.78,0,3.23,1.45,3.23,3.23s-1.45,3.23-3.23,3.23h-3.73c-.33,0-.59.26-.59.59,0,.72-.3,1.41-.82,1.9-.52.49-1.24.75-1.96.7-15.13-.99-17.84,8.14-17.95,8.53l-.2.74h-.77c-3.55,0-6.12,1.85-7.63,5.49-1.18,2.84-1.26,5.71-1.26,5.74v15.53c0,.56-.45,1.01-1.01,1.01Z"/>
  <path class="cls-9" d="m22.92,54.09s-1.22,4.92,14.01,4.92,12.17-4.25,12.17-4.25l-3.27,1.21-8.39.78-7.91-.99-5.33-1.65h-1.28Z"/>
  <path class="cls-6" d="m38.78,57.74c-5.27,0-11.66-1.01-16.31-3.33-.5-.25-.7-.85-.45-1.35s.85-.7,1.35-.45c5.83,2.91,14.6,3.62,19.9,2.82,12.12-1.85,14.3-9.22,14.46-9.88-.04-.36.11-.73.42-.95.46-.32,1.08-.21,1.4.25.15.22.47.68-.29,2.46-.83,1.94-4.41,8.39-15.69,10.11-1.4.21-3.04.33-4.8.33Zm19.13-11.74h0,0Zm0,0h0Z"/>
  <path class="cls-6" d="m12.2,22.74c-2.49,0-4.52-2.03-4.52-4.52v-1.28c0-.56.45-1.01,1.01-1.01s1.01.45,1.01,1.01v1.28c0,1.38,1.12,2.51,2.51,2.51s2.51-1.12,2.51-2.51V4.52c0-2.49,2.03-4.52,4.52-4.52h12.42c2.49,0,4.52,2.03,4.52,4.52v2.9c0,.56-.45,1.01-1.01,1.01s-1.01-.45-1.01-1.01v-2.9c0-1.38-1.12-2.51-2.51-2.51h-12.42c-1.38,0-2.51,1.12-2.51,2.51v13.7c0,2.49-2.03,4.52-4.52,4.52Z"/>
</svg>