<?xml version="1.0" encoding="UTF-8"?>
<svg id="Layer_1" data-name="Layer 1" xmlns="http://www.w3.org/2000/svg" viewBox="0 0 31.97 29.48">
  <defs>
    <style>
      .cls-1 {
        fill: #172553;
      }

      .cls-2 {
        fill: #bd3a5e;
      }

      .cls-3 {
        fill: #93cee8;
      }

      .cls-4 {
        fill: #fedccd;
      }

      .cls-5 {
        fill: #361853;
      }

      .cls-6 {
        fill: #c44266;
      }

      .cls-7 {
        fill: #fe838c;
      }

      .cls-8 {
        fill: #fafef1;
      }

      .cls-9 {
        fill: #ff7a6f;
      }

      .cls-10 {
        fill: #fffdfa;
      }

      .cls-11 {
        fill: #1a234b;
      }
    </style>
  </defs>
  <path class="cls-9" d="m29.03,18.81s.37-3.54.12-7.03c-.15-2.11-1.06-3.86-2.86-4.6l-3.26,2.58,3.37,3.23,1.64,2.38.98,3.43Z"/>
  <path class="cls-9" d="m2.8,19.07v-7.08s.12-5.56,4.51-5.56c0,0,1.35-5.03,9.42-4.16,0,0,3,.65,8.14-1.81,0,0,0,2.1-.94,3.61-.55.89-2.22,1.5-2.22,1.59"/>
  <g>
    <path class="cls-4" d="m29.08,20.33c0,6.7-4.36,8.69-13.18,8.69s-13.18-1.99-13.18-8.69,5.87-12.12,13.18-12.12,13.18,5.43,13.18,12.12Z"/>
    <path class="cls-5" d="m15.9,29.48c-4.79,0-8.01-.6-10.14-1.9-2.36-1.43-3.5-3.8-3.5-7.25s1.42-6.54,4-8.91c2.57-2.37,5.99-3.67,9.64-3.67s7.07,1.3,9.64,3.67c2.58,2.37,4,5.54,4,8.91s-1.15,5.81-3.5,7.25c-2.13,1.3-5.35,1.9-10.14,1.9Zm0-20.81c-7.01,0-12.72,5.23-12.72,11.67,0,6,3.45,8.23,12.72,8.23s12.72-2.23,12.72-8.23c0-6.43-5.71-11.67-12.72-11.67Z"/>
  </g>
  <path class="cls-7" d="m3.83,24.04c1.52,3.57,5.5,4.6,12.08,4.6s10.92-1.29,12.22-4.96c0,0-2.35,4.26-12,4.24-10.13-.02-12.29-3.87-12.29-3.87Z"/>
  <path class="cls-11" d="m16.12,17.39c0,3.09-2.45,5.59-5.46,5.59s-5.46-2.5-5.46-5.59c0-.5.06-.99.18-1.45.62-2.39,2.75-4.15,5.28-4.15s4.63,1.74,5.27,4.11c.13.47.19.97.19,1.48Z"/>
  <path class="cls-11" d="m15.9,17.39c0,3.09,2.45,5.59,5.46,5.59,3.02,0,5.46-2.5,5.46-5.59,0-.5-.06-.99-.18-1.45-.62-2.39-2.75-4.15-5.28-4.15s-4.63,1.74-5.27,4.11c-.13.47-.19.97-.19,1.48Z"/>
  <path class="cls-10" d="m15.42,17.29c0,2.67-2.17,4.84-4.84,4.84s-4.84-2.17-4.84-4.84c0-.43.06-.85.16-1.25.55-2.06,2.44-3.59,4.67-3.59s4.1,1.51,4.67,3.56c.11.41.17.84.17,1.28Z"/>
  <circle class="cls-1" cx="10.58" cy="17.17" r="3.16"/>
  <circle class="cls-8" cx="11.33" cy="15.81" r="1.02"/>
  <circle class="cls-8" cx="12.17" cy="17.55" r=".51"/>
  <path class="cls-3" d="m10.58,21.11c-4.3,0-4.67-5.07-4.67-5.07-.11.4-.16.82-.16,1.25,0,2.67,2.17,4.84,4.84,4.84s4.84-2.17,4.84-4.84c0-.44-.06-.87-.17-1.28,0,0-.52,5.1-4.67,5.1Z"/>
  <path class="cls-10" d="m26.28,17.29c0,2.67-2.17,4.84-4.84,4.84s-4.84-2.17-4.84-4.84c0-.43.06-.85.16-1.25.55-2.06,2.44-3.59,4.67-3.59s4.1,1.51,4.67,3.56c.11.41.17.84.17,1.28Z"/>
  <circle class="cls-1" cx="21.45" cy="17.17" r="3.16"/>
  <circle class="cls-8" cx="22.19" cy="15.81" r="1.02"/>
  <circle class="cls-8" cx="23.03" cy="17.55" r=".51"/>
  <path class="cls-3" d="m21.45,21.11c-4.01,0-4.67-5.07-4.67-5.07-.11.4-.16.82-.16,1.25,0,2.67,2.17,4.84,4.84,4.84s4.84-2.17,4.84-4.84c0-.44-.06-.87-.17-1.28,0,0-.65,5.1-4.67,5.1Z"/>
  <path class="cls-11" d="m16.02,25.2c-1.75,0-2.19-1.35-2.21-1.41-.06-.18.04-.37.23-.43.18-.06.37.04.43.22.01.04.33.93,1.55.93s1.53-.92,1.54-.93c.05-.18.25-.29.43-.23.18.05.29.25.23.43-.15.49-.79,1.42-2.19,1.42Z"/>
  <path class="cls-9" d="m26.59,5.93s-.82,3.77-6.82,4.69c-2.45.37-6.58.05-9.34-1.33l-.68-1.62,12.4-1.76c1.14-.16,2.29-.19,3.43-.08l1,.1Z"/>
  <path class="cls-5" d="m21.36,6.48c-.25,0-.46-.21-.46-.46,0-.33.28-.44.5-.53.45-.18,1.5-.59,2.13-1.65.83-1.41.87-3.37.87-3.39,0-.25.22-.45.47-.45.25,0,.45.21.45.47,0,.09-.05,2.22-1,3.84-.79,1.34-2.09,1.85-2.59,2.04-.04.01-.07.03-.1.04-.08.06-.17.09-.28.09Zm.46-.46s0,.03,0,.04c0-.01,0-.03,0-.04Zm0,0h0s0,0,0,0Zm0,0h0s0,0,0,0Zm0,0h0s0,0,0,0Z"/>
  <g>
    <path class="cls-4" d="m29.24,19.67c1.32,0,2.39-1.07,2.39-2.39,0-1.32-1.07-2.39-2.39-2.39v4.78Z"/>
    <path class="cls-5" d="m29.24,20.01h-.34v-5.47h.34c1.51,0,2.73,1.23,2.73,2.73s-1.23,2.73-2.73,2.73Zm.34-4.75v4.03c.96-.16,1.7-1.01,1.7-2.02s-.74-1.85-1.7-2.02Z"/>
  </g>
  <path class="cls-2" d="m29.58,18.28c.55,0,1-.45,1-1,0-.55-.45-1-1-1"/>
  <g>
    <path class="cls-4" d="m2.73,19.67c-1.32,0-2.39-1.07-2.39-2.39s1.07-2.39,2.39-2.39v4.78Z"/>
    <path class="cls-5" d="m3.08,20.01h-.34c-1.51,0-2.73-1.23-2.73-2.73s1.23-2.73,2.73-2.73h.34v5.47Zm-.69-4.75c-.96.16-1.7,1.01-1.7,2.02s.74,1.85,1.7,2.02v-4.03Z"/>
  </g>
  <path class="cls-2" d="m2.39,18.28c-.55,0-1-.45-1-1s.45-1,1-1"/>
  <path class="cls-6" d="m28.67,11.14l.14,2.82v2.32s-.33-.89-.71-1.58-1.01-1.59-1.01-1.59l1.58-1.97Z"/>
  <path class="cls-5" d="m29.03,19.26s-.03,0-.05,0c-.25-.03-.43-.25-.41-.5,0-.04.37-3.54.12-6.95-.15-2.1-1.07-3.59-2.58-4.21-.23-.1-.35-.36-.25-.6.1-.23.36-.35.6-.25,1.85.75,2.97,2.52,3.15,4.99.25,3.49-.12,7.07-.12,7.11-.02.24-.22.41-.46.41Z"/>
  <path class="cls-6" d="m3.24,10.67v2.82s0,2.32,0,2.32c0,0,.43-.96.81-1.65s1.05-1.52,1.05-1.52l-1.87-1.97Z"/>
  <path class="cls-5" d="m2.8,19.53c-.25,0-.46-.21-.46-.46v-7.08c0-.07.04-1.5.64-2.96.79-1.89,2.16-2.94,4-3.05.19-.46.64-1.34,1.57-2.18,1.2-1.08,3.45-2.31,7.43-2.05.25.02.44.23.43.49-.02.25-.23.45-.49.43-6.89-.45-8.12,3.71-8.17,3.89l-.09.34h-.35c-3.88,0-4.04,4.9-4.05,5.11v7.07c0,.25-.21.46-.46.46Z"/>
  <path class="cls-7" d="m10.44,9.56s-.56,2.24,6.38,2.24,5.54-1.94,5.54-1.94l-1.49.55-3.82.36-3.6-.45-2.43-.75h-.58Z"/>
  <path class="cls-5" d="m17.66,11.22c-2.4,0-5.31-.46-7.43-1.52-.23-.11-.32-.39-.21-.62s.39-.32.62-.21c2.65,1.33,6.65,1.65,9.06,1.28,5.52-.84,6.51-4.2,6.59-4.5-.02-.16.05-.33.19-.43.21-.15.49-.09.64.11.07.1.22.31-.13,1.12-.38.88-2.01,3.82-7.15,4.6-.64.1-1.38.15-2.18.15Zm8.71-5.35h0,0Zm0,0s0,0,0,0c0,0,0,0,0,0Z"/>
</svg>